<svg class="logo-lotsof-picto" width="41" height="105" viewBox="0 0 41 105" fill="none" xmlns="http://www.w3.org/2000/svg">
<rect x="0.3125" width="8.13557" height="57.7626" rx="4.06779" fill="black"/>
<rect y="65.5931" width="8.13558" height="16.2711" rx="4.06779" fill="black"/>
<rect width="8.13558" height="53.6948" rx="4.06779" transform="matrix(1 -8.74228e-08 -8.74228e-08 -1 16.5781 104.135)" fill="black"/>
<rect width="8.13558" height="13.8305" rx="4.06779" transform="matrix(1 -8.74228e-08 -8.74228e-08 -1 16.5781 42.7118)" fill="black"/>
<rect width="8.13558" height="12.6101" rx="4.06779" transform="matrix(1 -8.74228e-08 -8.74228e-08 -1 32.8438 54.9151)" fill="black"/>
<rect x="32.8438" y="5.6949" width="8.13557" height="28.4745" rx="4.06779" fill="black"/>
<path d="M34.2079 33.3373C36.8519 35.7779 35.6316 42.2864 33.8011 43.9135L35.2243 50.6254C37.9362 50.083 42.6277 47.9813 39.6989 43.9135C36.0379 38.8288 37.2587 35.7779 39.496 33.1339C41.7333 30.4898 31.5638 30.8966 34.2079 33.3373Z" fill="black"/>
</svg>
