<svg class="logo-lotsof" viewBox="0 0 96 67" fill="none" xmlns="http://www.w3.org/2000/svg">
    <path
        d="M89.6785 22.1424C89.6785 21.6166 89.5976 21.1448 89.4358 20.7269C89.2875 20.2955 89.0044 19.9046 88.5865 19.5541C88.1686 19.1901 87.5822 18.8328 86.8273 18.4823C86.0723 18.1318 85.095 17.7678 83.8952 17.3904C82.5606 16.959 81.2934 16.4737 80.0936 15.9344C78.9072 15.3952 77.8557 14.7683 76.939 14.0539C76.0358 13.3259 75.3213 12.4833 74.7956 11.5262C74.2833 10.569 74.0271 9.45686 74.0271 8.18966C74.0271 6.96289 74.2968 5.85072 74.836 4.85313C75.3752 3.84206 76.1302 2.97928 77.1008 2.26479C78.0714 1.53682 79.2173 0.977366 80.5384 0.58642C81.873 0.195473 83.3357 0 84.9265 0C87.0969 0 88.991 0.390946 90.6087 1.17284C92.2264 1.95473 93.4801 3.02647 94.3698 4.38804C95.2731 5.74961 95.7247 7.30665 95.7247 9.05917H89.6987C89.6987 8.1964 89.5167 7.44146 89.1527 6.79438C88.8022 6.13382 88.263 5.6148 87.535 5.23733C86.8205 4.85987 85.9173 4.67114 84.8254 4.67114C83.7738 4.67114 82.8976 4.83291 82.1966 5.15645C81.4956 5.46651 80.9698 5.89116 80.6193 6.4304C80.2688 6.95615 80.0936 7.54931 80.0936 8.20988C80.0936 8.70867 80.2149 9.16028 80.4575 9.56471C80.7137 9.96914 81.0911 10.3466 81.5899 10.6971C82.0887 11.0476 82.7021 11.3779 83.4301 11.688C84.1581 11.998 85.0006 12.3013 85.9578 12.5979C87.562 13.0832 88.9707 13.6292 90.184 14.2358C91.4108 14.8425 92.4353 15.5233 93.2577 16.2782C94.08 17.0331 94.7001 17.8892 95.118 18.8463C95.5359 19.8035 95.7449 20.8887 95.7449 22.102C95.7449 23.3826 95.4955 24.5285 94.9967 25.5396C94.4979 26.5507 93.7767 27.4067 92.833 28.1077C91.8894 28.8087 90.7637 29.3412 89.4561 29.7052C88.1484 30.0692 86.6857 30.2512 85.068 30.2512C83.6121 30.2512 82.1764 30.0624 80.7609 29.685C79.3454 29.294 78.0579 28.7076 76.8986 27.9257C75.7527 27.1438 74.836 26.1462 74.1485 24.9329C73.461 23.7197 73.1172 22.284 73.1172 20.6258H79.2038C79.2038 21.5425 79.3454 22.3177 79.6285 22.9513C79.9116 23.5849 80.3093 24.0971 80.8215 24.4881C81.3473 24.879 81.9674 25.1621 82.6819 25.3374C83.4099 25.5126 84.2052 25.6003 85.068 25.6003C86.1195 25.6003 86.9823 25.452 87.6564 25.1554C88.3439 24.8588 88.8494 24.4476 89.173 23.9219C89.51 23.3961 89.6785 22.803 89.6785 22.1424Z"
        fill="black" />
    <path
        d="M62.1591 0.404541V29.8469H56.1129V0.404541H62.1591ZM71.2183 0.404541V5.15656H47.1953V0.404541H71.2183Z"
        fill="black" />
    <path
        d="M46.0042 14.4381V15.8333C46.0042 18.0712 45.7009 20.0798 45.0942 21.8593C44.4876 23.6388 43.6315 25.1554 42.5261 26.4091C41.4207 27.6494 40.0995 28.5998 38.5627 29.2603C37.0394 29.9209 35.3475 30.2512 33.4872 30.2512C31.6403 30.2512 29.9484 29.9209 28.4116 29.2603C26.8883 28.5998 25.5671 27.6494 24.4482 26.4091C23.3293 25.1554 22.4598 23.6388 21.8396 21.8593C21.233 20.0798 20.9297 18.0712 20.9297 15.8333V14.4381C20.9297 12.1867 21.233 10.1781 21.8396 8.41209C22.4463 6.63261 23.3023 5.11601 24.4078 3.86228C25.5267 2.60856 26.8478 1.65141 28.3712 0.990847C29.908 0.330282 31.5998 0 33.4467 0C35.3071 0 36.9989 0.330282 38.5223 0.990847C40.0591 1.65141 41.3802 2.60856 42.4857 3.86228C43.6046 5.11601 44.4674 6.63261 45.074 8.41209C45.6941 10.1781 46.0042 12.1867 46.0042 14.4381ZM39.8771 15.8333V14.3976C39.8771 12.8338 39.7356 11.4588 39.4525 10.2725C39.1694 9.08614 38.7515 8.08855 38.1987 7.27969C37.646 6.47084 36.972 5.8642 36.1766 5.45977C35.3812 5.04186 34.4713 4.83291 33.4467 4.83291C32.4222 4.83291 31.5122 5.04186 30.7168 5.45977C29.9349 5.8642 29.2676 6.47084 28.7149 7.27969C28.1757 8.08855 27.7645 9.08614 27.4814 10.2725C27.1983 11.4588 27.0568 12.8338 27.0568 14.3976V15.8333C27.0568 17.3836 27.1983 18.7587 27.4814 19.9585C27.7645 21.1448 28.1824 22.1491 28.7351 22.9715C29.2879 23.7803 29.9619 24.3937 30.7573 24.8116C31.5526 25.2295 32.4626 25.4385 33.4872 25.4385C34.5117 25.4385 35.4217 25.2295 36.217 24.8116C37.0124 24.3937 37.6797 23.7803 38.219 22.9715C38.7582 22.1491 39.1694 21.1448 39.4525 19.9585C39.7356 18.7587 39.8771 17.3836 39.8771 15.8333Z"
        fill="black" />
    <path
        d="M19.6772 25.1151V29.8469H4.85494V25.1151H19.6772ZM6.81641 0.404541V29.8469H0.75V0.404541H6.81641Z"
        fill="black" />
    <path
        d="M86.8408 46.2742V66.242H82.7266V46.2742H86.8408ZM94.795 54.8044V58.0135H85.7162V54.8044H94.795ZM95.755 46.2742V49.497H85.7162V46.2742H95.755Z"
        fill="black" />
    <path
        d="M79.7555 55.7919V56.7382C79.7555 58.2559 79.5498 59.6182 79.1384 60.825C78.727 62.0318 78.1464 63.0604 77.3967 63.9107C76.647 64.7518 75.751 65.3964 74.7087 65.8444C73.6756 66.2924 72.5282 66.5164 71.2665 66.5164C70.0139 66.5164 68.8665 66.2924 67.8242 65.8444C66.7911 65.3964 65.8951 64.7518 65.1363 63.9107C64.3774 63.0604 63.7877 62.0318 63.3671 60.825C62.9557 59.6182 62.75 58.2559 62.75 56.7382V55.7919C62.75 54.2651 62.9557 52.9028 63.3671 51.7051C63.7786 50.4982 64.3591 49.4697 65.1088 48.6194C65.8677 47.7691 66.7637 47.12 67.7968 46.672C68.8391 46.224 69.9865 46 71.2391 46C72.5008 46 73.6482 46.224 74.6813 46.672C75.7236 47.12 76.6196 47.7691 77.3693 48.6194C78.1281 49.4697 78.7133 50.4982 79.1247 51.7051C79.5453 52.9028 79.7555 54.2651 79.7555 55.7919ZM75.6002 56.7382V55.7645C75.6002 54.7039 75.5042 53.7714 75.3122 52.9668C75.1202 52.1622 74.8367 51.4857 74.4619 50.9371C74.087 50.3885 73.6299 49.9771 73.0905 49.7028C72.551 49.4194 71.9339 49.2777 71.2391 49.2777C70.5442 49.2777 69.9271 49.4194 69.3876 49.7028C68.8574 49.9771 68.4048 50.3885 68.0299 50.9371C67.6642 51.4857 67.3854 52.1622 67.1934 52.9668C67.0014 53.7714 66.9054 54.7039 66.9054 55.7645V56.7382C66.9054 57.7896 67.0014 58.7222 67.1934 59.5359C67.3854 60.3404 67.6688 61.0216 68.0437 61.5793C68.4185 62.1278 68.8757 62.5438 69.4151 62.8273C69.9545 63.1107 70.5716 63.2524 71.2665 63.2524C71.9613 63.2524 72.5785 63.1107 73.1179 62.8273C73.6573 62.5438 74.1099 62.1278 74.4756 61.5793C74.8413 61.0216 75.1202 60.3404 75.3122 59.5359C75.5042 58.7222 75.6002 57.7896 75.6002 56.7382Z"
        fill="black" />
</svg>
    