<svg class="picto-new-n-tasty" viewBox="0 0 618 194" fill="none" xmlns="http://www.w3.org/2000/svg">
    <path
        d="M617.951 0C612.895 0.105 603.302 0.456004 599.265 3.742C595.712 6.634 595.555 13.807 594.602 18C591.798 30.324 589.149 42.707 586.209 55C584.644 61.545 582.883 68.338 581.952 75C581.653 77.136 580.623 80.467 582.018 82.397C584.513 85.847 592.868 83.396 595.441 81.157C600.875 76.428 601.658 63.645 603.53 57C605.697 49.312 607.936 41.65 610.231 34C613.487 23.147 617.857 11.383 617.951 0Z"
        fill="black" />
    <path
        d="M357.953 28C363.063 28.851 369.659 24.424 374.953 23.463C386.876 21.298 399.955 25.765 410.953 20C406.497 19.043 401.531 20.822 396.953 20.821C391.591 20.819 386.379 19.715 380.953 20.09C373.099 20.631 364.738 24.142 357.953 28ZM416.953 19C406.828 27.319 397.87 24.835 385.953 25.129C376.115 25.372 365.85 27.293 357.968 33.529C349.851 39.952 343.189 55.697 351.383 64.772C361.514 75.993 376.697 60.893 376.953 50C368.154 52.922 365.449 45.087 372.058 39.394C377.854 34.401 384.013 35.452 390.953 36C380.953 54.051 381.85 75.652 372.396 93.995C369.733 99.162 359.539 104.296 358.404 94.995C357.776 89.841 363.942 85.339 365.953 81C354.935 81.007 345.827 86.039 341.922 97C337.886 108.33 342.786 122.335 355.953 122.96C389.419 124.548 395.246 85.377 398.664 60C399.387 54.634 399.855 49.254 401.308 44.001C403.567 35.834 424.093 29.309 416.953 19Z"
        fill="black" />
    <path
        d="M489.952 63C490.215 66.799 492.145 70.283 491.893 74.09C491.357 82.195 487.066 90.769 489.386 98.985C492.196 108.94 505.625 106.027 511.952 101.891C515.316 99.692 518.114 96.814 520.952 94C525.96 108.288 541.177 102.876 549.952 95C548.952 102.872 547.794 112.628 542.558 118.956C535.516 127.468 529.416 120.697 530.952 112C515.809 114.025 512.788 138.569 527.953 143.347C539.72 147.055 550.795 139.056 555.832 129C562.366 115.955 564.16 100.283 566.376 86C567.861 76.432 570.536 66.668 570.952 57C568.278 56.505 565.684 55.978 562.952 56.316C548.926 58.05 553.287 69.893 549.709 80C548.705 82.837 547.154 87.659 543.906 88.654C540.08 89.827 539.972 84.299 540.257 82C540.964 76.3 542.716 70.705 543.508 65.004C543.955 61.788 543.645 58.835 539.893 58.268C538.265 58.021 536.551 58.321 534.952 58.62C519.249 61.558 528.331 78.02 519.649 87.409C518.842 88.281 517.898 89.162 516.933 89.856C505.639 97.985 508.006 78.763 510.215 73.015C512.089 68.141 516.85 66.333 517.952 61C510.792 58.368 513.901 51.141 513.952 45C509.117 46.422 507.173 50.438 503.859 53.996C499.838 58.312 495.7 61.547 489.952 63Z"
        fill="black" />
    <path
        d="M310.099 56.0279C304.857 59.1209 307.459 71.0469 308.585 75.9809C309.07 78.1039 310.564 81.7689 313.406 79.9139C315.226 78.7259 315.532 75.9269 315.947 73.9989C316.918 69.4929 319.521 62.7189 318.544 58.1479C317.768 54.5229 312.745 54.4669 310.099 56.0279Z"
        fill="black" />
    <path fill-rule="evenodd" clip-rule="evenodd"
        d="M461.269 95.9404C462.318 97.5306 463.377 99.1371 464.949 100C465.486 95.1302 462.569 91.9524 459.63 88.7502C456.622 85.4728 453.59 82.1698 454.214 77.0011C455.491 66.4111 478.117 56.667 484.77 67.343C487.809 72.221 481.785 83.3091 476.977 77.3931C475.757 75.891 475.844 73.4221 475.917 71.3626C475.934 70.88 475.95 70.42 475.949 70.0001C468.472 73.9393 473.571 78.3721 478.152 82.3546C479.753 83.7466 481.291 85.0835 482.207 86.3251C484.536 89.4841 484.272 94.4201 483.145 97.9991C480.416 106.664 469.336 110.52 460.949 109.812C459.352 109.677 457.789 109.133 456.235 108.592C454.474 107.979 452.725 107.37 450.949 107.363C448.08 107.351 445.568 108.721 443.089 110.074C439.351 112.114 435.686 114.114 430.974 111.282C429.419 110.347 428.105 109.078 426.805 107.822C426.52 107.546 426.235 107.271 425.949 107C419.005 115.992 402.816 120.492 397.919 106.999C394.302 97.0331 399.438 83.0581 406.992 76.2101C413.794 70.0437 419.826 70.0469 427.016 70.0507C429.202 70.0519 431.495 70.0531 433.949 69.8811C436.221 69.7222 438.385 69.0802 440.555 68.4362C442.646 67.8159 444.743 67.1939 446.949 67.0001C446.849 71.802 445.905 76.453 444.958 81.1144C444.361 84.0586 443.762 87.0069 443.375 90.0001L443.371 90.0306C443.046 92.5389 442.526 96.5662 445.212 98.0791C446.992 99.0813 448.548 97.2566 450.243 95.2698C451.896 93.3315 453.681 91.2389 455.934 91.4661C458.488 91.7239 459.869 93.8177 461.269 95.9404ZM410.518 97C411.594 90.08 413.184 82.317 419.928 79C421.16 85.944 419.912 93.529 417.048 99.995C416.275 101.742 414.18 106.444 411.488 104.824C409.39 103.561 410.006 99.9912 410.395 97.7373C410.441 97.4712 410.484 97.2234 410.518 97Z"
        fill="black" />
    <path
        d="M241.953 92C248.75 89.509 248.833 81.307 249.873 75C250.26 72.651 251.552 68.858 249.911 66.743C247.279 63.352 241.625 66.188 239.981 69.109C237.902 72.801 239.158 78.06 239.671 82C240.137 85.574 240.544 88.661 241.953 92Z"
        fill="black" />
    <path
        d="M80.9484 122C77.5254 110.419 83.3244 94.7628 72.7604 85.5328C66.2704 79.8638 56.3434 81.7619 48.9484 84.3449C31.3864 90.4779 15.0174 108.015 13.1194 127C12.7694 130.491 12.5374 134.696 14.0384 137.956C17.5714 145.632 27.2824 143.101 32.9334 139.532C39.3544 135.477 42.4424 129.199 43.9484 122C42.4044 122.39 40.5584 123.129 38.9434 123.089C35.0674 122.993 33.8824 119.312 34.2934 116C35.0704 109.734 38.7234 103.496 43.0414 99.0399C44.7624 97.2639 47.2244 94.5649 49.9044 94.4609C58.2214 94.1409 53.7554 109.966 52.9484 114C49.9414 129.035 44.8364 144.362 35.9054 157C33.4264 160.508 30.0464 165.058 25.9494 166.762C22.3754 168.249 19.4144 165.619 19.2814 161.995C19.1844 159.364 20.3674 156.544 20.9484 154C9.4464 155.249 -0.704607 168.617 0.0383931 180C0.315393 184.234 1.29239 188.833 5.00739 191.397C13.0554 196.952 26.8814 190.603 32.9334 184.907C49.4894 169.327 55.0224 145.039 60.9484 124C63.1124 131.321 61.8294 139.522 61.1184 147C60.2174 156.47 59.9484 166.487 59.9484 176C65.0644 175.311 74.6894 174.431 78.3594 170.487C80.3904 168.305 80.5534 164.789 81.0294 162C81.9464 156.624 83.3144 151.343 84.3974 146C87.5174 130.616 92.8234 114.315 99.2544 99.9999C101.94 94.0199 104.154 86.9139 109.132 82.3899C111.243 80.4719 116.13 78.7039 115.196 75.0659C112.879 66.0319 98.9324 74.2308 95.8764 78.0928C91.0184 84.2338 88.9344 92.6299 86.7474 99.9999C84.6104 107.202 81.9534 114.545 80.9484 122Z"
        fill="black" />
    <path
        d="M271.953 97.0001V91.0001C265.984 91.0491 257.386 91.7911 253.595 97.2131C251.385 100.373 252.201 106.24 251.529 110C249.804 119.646 246.156 129.171 245.953 139C250.367 138.808 260.039 138.255 262.929 134.436C264.694 132.103 264.616 127.785 265.378 125C267.805 116.129 270.326 104.69 278.953 100C280.364 109.02 270.116 122.526 277.656 130.347C286.729 139.758 307.059 124.941 304.953 114C303.608 114.927 302.289 116.058 300.912 116.931C297.064 119.373 294.223 117.7 294.526 112.999C294.939 106.562 301.332 95.1641 296.35 89.4341C289.471 81.5211 277.413 93.2671 271.953 97.0001Z"
        fill="black" />
    <path
        d="M583.95 91.8729C578.899 93.7659 574.218 99.5099 574.149 105C574.081 110.388 578.279 115.341 583.946 113.253C589.322 111.273 592.892 104.521 592.863 99.0009C592.836 93.9789 589.198 89.9069 583.95 91.8729Z"
        fill="black" />
    <path fill-rule="evenodd" clip-rule="evenodd"
        d="M180.954 106.211C183.777 105.811 186.272 106.208 188.954 107C188.638 108.323 188.32 109.649 188.001 110.977C186.564 116.96 185.116 122.99 183.846 129C183.345 131.373 182.571 135.471 185.388 136.824C190.063 139.071 193.923 130.158 194.899 127C195.867 123.87 195.179 120.443 194.512 117.121C193.356 111.362 192.262 105.914 199.958 102.862C201.516 102.244 203.271 102.041 204.91 102.452C212.197 104.28 209.953 114.754 208.718 120C205.967 131.684 198.072 144.388 186.954 149.672C180.419 152.778 171.269 152.582 166.954 146H164.954C159.698 155.171 139.958 165.547 134.954 151C125.923 160.025 111.931 170.755 97.9693 165.258C92.9193 163.269 91.0633 158.014 90.9733 153C90.8063 143.593 95.2653 133.665 102.047 127.184C108.129 121.374 120.237 115.107 128.895 118.603C137.529 122.09 131.316 135.557 126.849 139.79C122.936 143.499 117.623 145.676 112.669 147.707C112.43 147.805 112.191 147.902 111.954 148C118.163 155.833 127.976 152.103 133.456 144.96C136.88 140.496 138.9 134.472 139.87 129C140.053 127.966 140.163 126.829 140.276 125.663C140.531 123.014 140.802 120.211 141.981 118.105C144.416 113.755 152.048 110.804 156.895 111.238C160.789 111.588 160.871 114.862 160.283 118.001C159.72 121.014 158.802 123.934 157.884 126.853C157.038 129.546 156.192 132.237 155.624 135C155.142 137.347 154.533 143.842 158.908 142.503C162.322 141.458 163.985 136.698 165.172 133.301C165.334 132.838 165.487 132.4 165.634 132C166.712 129.076 167.268 125.964 167.808 122.945C169.231 114.99 170.537 107.685 180.954 106.211ZM110 140C115.58 137.374 118.099 132.982 119 127C112.734 128.775 110.322 133.8 110 140Z"
        fill="black" />
</svg>
    